<svg class="icon" width="22px" height="22px" viewBox="0 0 1024 1024" version="1.1" xmlns="http://www.w3.org/2000/svg">
  <path d="M302.169017 291.826462z m-47.802725 36.567847c29.410843-0.001023 53.254901-29.294187 53.252854-65.429175v-73.504085c0-36.138058-23.842011-65.429175-53.252854-65.429175-29.411867 0.001023-53.255924 29.293163-53.254902 65.429175v73.504085c0.001023 36.137035 23.843034 65.429175 53.254902 65.429175z m692.305529-70.239738c-2.391467-59.886949-57.778938-55.93494-57.778938-55.93494h-31.771611v103.965863s-0.722454 45.62206-44.984541 45.715181l-8.338922 0.014327a18218.022581 18218.022581 0 0 0-68.536956 0.005116c-6.615675-0.008186-11.009751-0.017396-12.267395-0.019443-45.057195-1.460258-42.961464-44.530193-42.961464-44.530192V202.218608H343.963912v105.151875s2.095731 43.069935-42.961464 44.530192c-1.258667 0.004093-5.650697 0.011256-12.267394 0.019443-28.532847-0.058328-54.19225-0.031722-68.536956-0.005116l-8.338923-0.014327c-44.261063-0.093121-44.98454-45.715181-44.98454-45.715181V202.219631h-31.771611s-55.386448-3.952009-57.778938 55.93494c-0.348947 2.426259-0.432859 3.864004-0.432858 3.864004s0.093121 553.444924 0.093121 577.969481c0 59.433624 60.223616 59.98007 60.223616 59.98007h749.579977s60.223616-0.547469 60.223616-59.98007c0-24.524556 0.093121-577.969481 0.093121-577.969481s-0.082888-1.436722-0.432858-3.864004zM513.180895 778.13329c0 45.425585-86.955444 55.751768-168.582533 55.751768-81.506339 0-169.576163-10.326183-169.576163-55.751768v-12.491499c0-33.337269 60.10082-67.11149 111.339808-85.638449 3.701299-1.356904 21.390169-10.988262 11.499915-36.936237-25.377994-25.913183-44.553729-67.907623-44.553729-109.236914 0-63.302745 41.859363-96.475262 90.810239-96.475262 48.91813 0 91.020016 33.172517 91.020016 96.475262 0 41.161469-19.283182 82.988086-44.508703 108.966761h0.134053c-9.680477 29.424146 5.811356 36.408211 8.263198 37.20639 53.752228 17.790178 114.1539 51.290153 114.153899 85.638449v12.491499z m298.625308-20.849864h-190.130291c-22.550599 0-40.830941-18.280342-40.830941-40.830941s18.281365-40.829917 40.830941-40.829917h190.130291c22.550599 0 40.830941 18.279319 40.830941 40.829917s-18.281365 40.830941-40.830941 40.830941z m0-161.668053h-190.130291c-22.550599 0-40.830941-18.281365-40.830941-40.830941 0-22.549575 18.281365-40.829917 40.830941-40.829917h190.130291c22.550599 0 40.830941 18.280342 40.830941 40.829917 0.001023 22.550599-18.281365 40.830941-40.830941 40.830941z m-41.919738-267.221064c29.410843-0.001023 53.252855-29.294187 53.252855-65.429175v-73.504085c0-36.138058-25.845645-65.429175-55.256489-65.429175-29.410843 0.001023-51.252291 29.293163-51.251267 65.429175v73.504085c0.001023 36.137035 23.843034 65.429175 53.254901 65.429175z" fill="#fff"/>
</svg>