<?xml version="1.0" standalone="no"?><!DOCTYPE svg PUBLIC "-//W3C//DTD SVG 1.1//EN" "http://www.w3.org/Graphics/SVG/1.1/DTD/svg11.dtd"><svg class="icon" width="24px" height="24px" fill="white" viewBox="0 0 1024 1024" version="1.1" xmlns="http://www.w3.org/2000/svg"><path d="M869.96 926.48H157.55c-30.7 0-55.59-24.89-55.59-55.59V569.28c0-0.77 0.2-1.53 0.59-2.2l101.22-175.34c0.39-0.67 0.59-1.43 0.59-2.2V162.87c0-14.75 5.86-28.89 16.29-39.31a55.592 55.592 0 0 1 39.32-16.28h403.38c1.17 0 2.29 0.47 3.11 1.29l151 151c0.82 0.82 1.29 1.95 1.29 3.11v150.47c0 0.87 0.26 1.72 0.74 2.44l100.94 151.38c0.48 0.72 0.74 1.57 0.74 2.44v305.87c-0.01 28.28-22.93 51.2-51.21 51.2zM196.34 504.87l-38.49 56.34a4.393 4.393 0 0 0-0.26 4.53 4.398 4.398 0 0 0 3.89 2.34h38.48c1.16 0 2.28-0.47 3.11-1.28 0.82-0.83 1.29-1.94 1.29-3.11v-56.35a4.396 4.396 0 0 0-3.1-4.18c-1.84-0.57-3.84 0.13-4.92 1.71z m468.82-299.59c0 30.71 24.9 55.6 55.6 55.6 1.78 0 3.39-1.07 4.07-2.71 0.68-1.64 0.3-3.54-0.96-4.79l-51.21-51.2a4.375 4.375 0 0 0-4.78-0.96 4.396 4.396 0 0 0-2.72 4.06z m98 106.8h-93.61c-14.74 0-28.88-5.86-39.31-16.28a55.587 55.587 0 0 1-16.28-39.31v-93.62c0-2.43-1.96-4.39-4.39-4.39H311.15c-14.75 0-28.88 5.86-39.31 16.28a55.587 55.587 0 0 0-16.28 39.31v349.62c0 1.16 0.46 2.28 1.29 3.11 0.82 0.82 1.94 1.29 3.11 1.28h93.68a4.38 4.38 0 0 1 4.38 4.26c2.32 83.13 70.38 149.31 153.54 149.31s151.21-66.18 153.54-149.31a4.38 4.38 0 0 1 4.38-4.26h93.68c1.16 0 2.28-0.47 3.11-1.28 0.82-0.83 1.29-1.94 1.29-3.11V316.47c0-2.42-1.96-4.39-4.38-4.39h-0.02z m55.6 215.41v36.2a4.39 4.39 0 0 0 4.39 4.39h36.2c1.78 0 3.39-1.07 4.07-2.71a4.37 4.37 0 0 0-0.96-4.79l-36.2-36.2a4.395 4.395 0 0 0-4.79-0.96 4.386 4.386 0 0 0-2.71 4.07z m-456.41-113h298.42c1.16 0 2.28 0.46 3.1 1.29 0.82 0.82 1.28 1.94 1.28 3.11v42.4c0 1.16-0.46 2.28-1.28 3.11a4.4 4.4 0 0 1-3.1 1.29H362.35c-1.16 0-2.28-0.46-3.11-1.29a4.396 4.396 0 0 1-1.28-3.11v-42.41c0-1.16 0.46-2.28 1.28-3.11 0.82-0.82 1.94-1.29 3.11-1.29v0.01z m0-102.4h196c1.16 0 2.28 0.46 3.11 1.28 0.82 0.82 1.28 1.94 1.28 3.11v42.41a4.39 4.39 0 0 1-4.39 4.39h-196c-1.16 0-2.28-0.46-3.11-1.28a4.396 4.396 0 0 1-1.28-3.11v-42.42c0-1.16 0.46-2.28 1.28-3.11a4.38 4.38 0 0 1 3.11-1.27z m0 0" /></svg>