<svg class="icon" width="26px" height="26px" viewBox="0 0 1024 1024" version="1.1" xmlns="http://www.w3.org/2000/svg">
  <path d="M204.8 248.32v527.36c0 9.728 8.192 17.92 17.92 17.92h578.56c9.728 0 17.92-8.192 17.92-17.92V248.32c0-9.728-8.192-17.92-17.92-17.92H222.72c-9.728 0-17.92 8.192-17.92 17.92zM750.08 742.4H273.92c-9.728 0-17.92-8.192-17.92-17.92v-332.8c0-9.728 8.192-17.92 17.92-17.92h476.16c9.728 0 17.92 8.192 17.92 17.92v332.8c0 9.728-8.192 17.92-17.92 17.92zM576 558.08h25.6c9.728 0 17.92-8.192 17.92-17.92v-5.12c0-9.728 8.192-17.92 17.92-17.92h56.32c9.728 0 17.92-8.192 17.92-17.92s-8.192-17.92-17.92-17.92h-56.32c-9.728 0-17.92-8.192-17.92-17.92v-5.12c0-9.728-8.192-17.92-17.92-17.92H576c-9.728 0-17.92 8.192-17.92 17.92v5.12c0 9.728-8.192 17.92-17.92 17.92H340.48c-9.728 0-17.92 8.192-17.92 17.92s8.192 17.92 17.92 17.92h199.68c9.728 0 17.92 8.192 17.92 17.92v5.12c0 9.728 8.192 17.92 17.92 17.92z m-143.36 15.36h-25.6c-9.728 0-17.92 8.192-17.92 17.92v5.12c0 9.728-8.192 17.92-17.92 17.92h-40.96c-9.728 0-17.92 8.192-17.92 17.92s8.192 17.92 17.92 17.92h40.96c9.728 0 17.92 8.192 17.92 17.92v10.24c0 9.728 8.192 17.92 17.92 17.92h25.6c9.728 0 17.92-8.192 17.92-17.92v-5.12c0-9.728 8.192-17.92 17.92-17.92h220.16c9.728 0 17.92-8.192 17.92-17.92s-8.192-17.92-17.92-17.92H468.48c-9.728 0-17.92-8.192-17.92-17.92v-10.24c0-9.728-8.192-17.92-17.92-17.92z" fill="#fff"/>
</svg>