<?xml version="1.0" standalone="no"?><!DOCTYPE svg PUBLIC "-//W3C//DTD SVG 1.1//EN" "http://www.w3.org/Graphics/SVG/1.1/DTD/svg11.dtd"><svg t="1553680750592" fill="#fff" class="icon" style="" viewBox="0 0 1024 1024" version="1.1" xmlns="http://www.w3.org/2000/svg" p-id="2932" xmlns:xlink="http://www.w3.org/1999/xlink" width="22" height="22"><defs><style type="text/css"></style></defs><path d="M661.504 221.184H346.112c-12.288 0-20.48-10.24-20.48-20.48V143.36c0-12.288 10.24-20.48 20.48-20.48h315.392c12.288 0 20.48 10.24 20.48 20.48v55.296c0 12.288-10.24 22.528-20.48 22.528z" opacity=".6" p-id="2933"></path><path d="M864.256 219.136h-90.112c-12.288 0-22.528 10.24-22.528 22.528V266.24c0 12.288-10.24 22.528-22.528 22.528H284.672c-12.288 0-22.528-10.24-22.528-22.528v-24.576c0-12.288-10.24-22.528-22.528-22.528H143.36c-36.864 0-67.584 30.72-67.584 67.584v565.248c0 36.864 30.72 67.584 67.584 67.584h720.896c36.864 0 67.584-30.72 67.584-67.584V286.72c0-36.864-30.72-67.584-67.584-67.584z m-147.456 307.2L489.472 763.904c-8.192 8.192-20.48 14.336-32.768 14.336-10.24 0-22.528-4.096-30.72-12.288l-135.168-126.976c-18.432-16.384-18.432-45.056-2.048-63.488 16.384-18.432 45.056-18.432 63.488-2.048l104.448 96.256 196.608-204.8c16.384-18.432 45.056-18.432 63.488-2.048 16.384 18.432 18.432 45.056 0 63.488z" p-id="2934"></path></svg>