<?xml version="1.0" standalone="no"?><!DOCTYPE svg PUBLIC "-//W3C//DTD SVG 1.1//EN" "http://www.w3.org/Graphics/SVG/1.1/DTD/svg11.dtd"><svg class="icon" width="24px" height="24px" fill="white" viewBox="0 0 1024 1024" version="1.1" xmlns="http://www.w3.org/2000/svg"><path d="M998.912 707.584c-16.384-132.096-129.536-235.52-268.8-237.056-148.992 0-272.384 120.32-272.384 267.776 0 148.992 121.856 269.312 270.848 269.312 139.264 0 253.952-103.424 270.336-235.52 2.56-20.992 2.56-43.008 0-64.512zM839.68 875.008c-12.288 3.584-23.552 2.048-32.256-7.168-23.552-23.552-116.736-116.736-138.24-140.288-5.632-6.656-8.704-14.848-9.216-23.552v-138.24c0-19.968 14.336-34.304 32.256-34.304s37.376 14.336 37.376 34.304v118.784c0 3.584 2.048 7.168 3.584 9.216 17.92 17.92 102.4 105.984 118.272 123.904 18.944 19.968 11.776 50.176-11.776 57.344zM443.904 462.848c150.016-156.672 398.848-161.28 555.008-10.752V205.824c0-89.088-72.192-161.792-161.792-161.792H187.904C98.304 44.032 26.112 116.736 26.112 205.824v650.752c0 89.6 72.704 161.792 161.792 161.792h267.264C298.496 868.352 293.888 619.52 443.904 462.848zM170.496 196.096h421.376c55.808 0 48.64 82.432 0 82.432H170.496c-52.224 0-50.176-82.432 0-82.432z m50.176 530.432H139.776c-60.928 0-57.344-82.432 0-82.432h80.896c64.512 0 55.296 82.432 0 82.432z m23.04-210.432H162.816c-60.928 0-57.344-82.432 0-82.432h80.896c64.512 0 55.296 82.432 0 82.432z" /></svg>