<?xml version="1.0" standalone="no"?><!DOCTYPE svg PUBLIC "-//W3C//DTD SVG 1.1//EN" "http://www.w3.org/Graphics/SVG/1.1/DTD/svg11.dtd"><svg t="1553680693480" fill="#fff" class="icon" style="" viewBox="0 0 1024 1024" version="1.1" xmlns="http://www.w3.org/2000/svg" p-id="1745" xmlns:xlink="http://www.w3.org/1999/xlink" width="22" height="22"><defs><style type="text/css"></style></defs><path d="M391.3 570.7c-66.7 66.7-66.7 175.8 0 243.1 66.7 66.7 175.8 66.7 243.1 0 66.7-66.7 66.7-175.8 0-243.1-67.3-66.7-175.8-66.7-243.1 0z m171.3 168.2h-70c-2.2 0-4.4-0.7-5.8-1.5-5.8-2.2-10.2-8.7-10.2-15.3l0.7-87.4c0-4.4 2.2-10.9 5.1-13.9 2.9-2.9 7.3-6.6 16-6.6 11.7 0 19.7 11.7 19 20.4l-0.7 63.3h45.9c8.7 0 21.9 4.4 21.9 20.4 0 14-13.1 20.6-21.9 20.6zM727.2 90.4h-67.5V58.7C659.7 26.4 633.3 0 601 0H424.2c-32.3 0-58.7 26.4-58.7 58.7v31.7h-68.7v157.9h430.4V90.4zM512.9 174c-26.8 0-48.4-21.5-48.4-48.4s21.5-48.4 48.4-48.4c26.8 0 48.4 21.5 48.4 48.4-0.1 30.8-21.6 48.4-48.4 48.4z" p-id="1746"></path><path d="M903.1 140.9H801.4v180.6H219.3V140.9H121c-21.7 0-39.3 17.6-39.3 39.3v803.3c0 21.7 17.6 39.3 39.3 39.3h782.1c21.7 0 39.3-17.6 39.3-39.3V180.3c0-21.8-17.6-39.4-39.3-39.4zM512 935.3c-134.3 0-243-108.7-243-243s108.7-243 243-243 243 108.7 243 243-108.7 243-243 243z"  p-id="1747" data-spm-anchor-id="a313x.7781069.0.i1" class="selected"></path></svg>