<?xml version="1.0" standalone="no"?><!DOCTYPE svg PUBLIC "-//W3C//DTD SVG 1.1//EN" "http://www.w3.org/Graphics/SVG/1.1/DTD/svg11.dtd"><svg class="icon" width="200px" height="200.00px" viewBox="0 0 1024 1024" version="1.1" xmlns="http://www.w3.org/2000/svg"><path d="M846.5 568.7v-152c0-125.3-83.3-248.1-199.6-301.9-19.5-53-70.2-87.9-134.6-87.9-62.8 0-113.7 35.3-133.6 87.6-118 53.9-201.6 177.3-200 303v150.8c-36.3 32.8-80.6 86.5-68.9 145.9 4.9 24.8 24 69.4 96.8 89.4l9.6 2.7h593.1l9.8-2.8c71.5-20.1 90.3-64.4 95.2-88.9 11.7-59.3-32-113-67.8-145.9zM799 737.5H226.1C108 705 250 600 250 600V416.7c-1.4-110.5 82.4-219.5 191-252 0-35.9 25.1-69 71.3-69 46.2 0 71.9 30.7 71.9 69 108.4 32.6 191 141.8 191 252V600c-0.1 0 139.4 105 23.8 137.5z"  /><path d="M350.3 989c-25.3 0-45.8-20.5-45.8-45.8s20.5-45.8 45.8-45.8h323.4c25.3 0 45.8 20.5 45.8 45.8S699 989 673.7 989H350.3z" fill="#1295D8" /></svg>