<?xml version="1.0" standalone="no"?><!DOCTYPE svg PUBLIC "-//W3C//DTD SVG 1.1//EN" "http://www.w3.org/Graphics/SVG/1.1/DTD/svg11.dtd"><svg class="icon" width="160px" height="160.00px" viewBox="0 0 1024 1024" version="1.1" xmlns="http://www.w3.org/2000/svg"><path d="M342.6 483.2H151.7c-47.6 0-86.4-38.8-86.4-86.4v-191c0-47.6 38.8-86.4 86.4-86.4h190.9c47.6 0 86.4 38.8 86.4 86.4v190.9c0 47.7-38.7 86.5-86.4 86.5zM151.7 174.8c-17.1 0-31 13.9-31 31v190.9c0 17.1 13.9 31.1 31 31.1h190.9c17.1 0 31-13.9 31-31.1V205.8c0-17.1-13.9-31-31-31H151.7zM342.6 903.6H151.7c-47.6 0-86.4-38.8-86.4-86.4V626.3c0-47.6 38.8-86.4 86.4-86.4h190.9c47.6 0 86.4 38.8 86.4 86.4v190.9c0 47.6-38.7 86.4-86.4 86.4zM927.1 214.4H555.8c-15.3 0-27.7-12.4-27.7-27.7s12.4-27.7 27.7-27.7h371.3c15.3 0 27.7 12.4 27.7 27.7s-12.4 27.7-27.7 27.7zM927.1 419.3H555.8c-15.3 0-27.7-12.4-27.7-27.7s12.4-27.7 27.7-27.7h371.3c15.3 0 27.7 12.4 27.7 27.7s-12.4 27.7-27.7 27.7zM930 642.3H558.7c-15.3 0-27.7-12.4-27.7-27.7s12.4-27.7 27.7-27.7H930c15.3 0 27.7 12.4 27.7 27.7s-12.4 27.7-27.7 27.7zM930 847.2H558.7c-15.3 0-27.7-12.4-27.7-27.7s12.4-27.7 27.7-27.7H930c15.3 0 27.7 12.4 27.7 27.7s-12.4 27.7-27.7 27.7z" fill="#7F7F7F" /></svg>