<?xml version="1.0" standalone="no"?><!DOCTYPE svg PUBLIC "-//W3C//DTD SVG 1.1//EN" "http://www.w3.org/Graphics/SVG/1.1/DTD/svg11.dtd"><svg class="icon" width="160px" height="160.00px" viewBox="0 0 1024 1024" version="1.1" xmlns="http://www.w3.org/2000/svg"><path d="M416.426667 15.36H85.333333c-37.546667 0-68.266667 30.72-68.266666 68.266667v331.093333c0 37.546667 30.72 68.266667 68.266666 68.266667h331.093334c37.546667 0 68.266667-30.72 68.266666-68.266667V83.626667c0-37.546667-30.72-68.266667-68.266666-68.266667z m0 401.066667H85.333333V83.626667h331.093334v332.8z m0 34.133333v-34.133333 34.133333zM942.08 15.36H610.986667c-37.546667 0-68.266667 30.72-68.266667 68.266667v331.093333c0 37.546667 30.72 68.266667 68.266667 68.266667h331.093333c37.546667 0 68.266667-30.72 68.266667-68.266667V83.626667c0-37.546667-30.72-68.266667-68.266667-68.266667z m0 401.066667H610.986667V83.626667h331.093333v332.8zM416.426667 542.72H85.333333c-37.546667 0-68.266667 30.72-68.266666 68.266667v331.093333c0 37.546667 30.72 68.266667 68.266666 68.266667h331.093334c37.546667 0 68.266667-30.72 68.266666-68.266667V610.986667c0-37.546667-30.72-68.266667-68.266666-68.266667z m0 399.36H85.333333V610.986667h331.093334v331.093333z m0 34.133333v-34.133333 34.133333zM942.08 542.72H610.986667c-37.546667 0-68.266667 30.72-68.266667 68.266667v331.093333c0 37.546667 30.72 68.266667 68.266667 68.266667h331.093333c37.546667 0 68.266667-30.72 68.266667-68.266667V610.986667c0-37.546667-30.72-68.266667-68.266667-68.266667z m0 399.36H610.986667V610.986667h331.093333v331.093333z" /></svg>