<?xml version="1.0" standalone="no"?><!DOCTYPE svg PUBLIC "-//W3C//DTD SVG 1.1//EN" "http://www.w3.org/Graphics/SVG/1.1/DTD/svg11.dtd"><svg class="icon" width="24px" height="24px" fill="white" viewBox="0 0 1024 1024" version="1.1" xmlns="http://www.w3.org/2000/svg"><path d="M385.606275 366.732549c45.979608 0 91.858824-0.200784 137.838431 0.100392 26.804706 0.100392 43.570196 13.854118 45.17647 36.040784 1.505882 22.889412-12.850196 38.349804-39.052549 42.767059-39.755294 6.726275-79.309804 14.657255-119.16549 20.279216-14.456471 2.007843-17.568627 7.830588-18.271372 21.082353-5.521569 103.403922-11.64549 206.908235-18.170981 310.312157-2.208627 36.341961-14.958431 47.48549-51.501176 47.686274-12.54902 0.100392-25.098039 0.401569-37.546667-0.200784-26.503529-1.204706-40.859608-15.460392-42.36549-41.763137-3.112157-52.003137-6.224314-104.106667-8.83451-156.210196-0.602353-11.243922-1.907451-18.974118-14.858039-23.391373-24.094118-8.232157-32.627451-28.812549-34.032941-52.505098-2.610196-44.373333-5.12-88.947451-7.027451-133.320784-1.706667-41.060392 26.302745-70.174118 67.865098-70.676079 46.682353-0.501961 93.264314-0.200784 139.946667-0.200784z m0 0"  /><path d="M796.912941 575.548235V232.307451h-23.190588c-106.516078 0-213.032157 0-319.447843-0.100392-6.927059 0-15.861961 2.007843-20.279216-1.505883-8.332549-6.625882-19.375686-16.665098-19.275294-25.098039 0.100392-8.533333 11.444706-17.970196 19.777255-24.796862 3.814902-3.212549 12.047059-1.40549 18.271372-1.405491 109.327059-0.100392 218.553725-0.100392 327.880785 0 46.581961 0 65.355294 19.07451 65.455686 66.258824 0.100392 105.813333 0.100392 211.626667 0 317.44-0.100392 45.979608-18.672941 64.552157-64.752941 64.552157-109.929412 0.200784-219.959216 0.100392-329.888628 0-6.224314 0-14.255686 1.505882-18.271372-1.706667-7.830588-6.324706-18.974118-15.861961-18.472157-23.491765 0.501961-9.035294 10.741961-18.672941 18.672941-25.800784 3.614118-3.212549 12.047059-1.204706 18.271373-1.204706 107.218824-0.100392 214.337255 0 321.556078 0h23.692549zM386.208627 262.625882c-0.200784 42.666667-36.141176 78.406275-78.506666 78.205491-42.164706-0.200784-78.105098-36.542745-77.803922-78.908236 0.200784-42.465882 36.341961-78.506667 78.506667-78.105098 42.465882 0.301176 78.004706 36.241569 77.803921 78.807843z m0 0"  /><path d="M645.521569 394.641569c-13.352157 26.101961-23.893333 46.983529-34.534902 67.865098-11.444706 22.287059-15.36 22.889412-32.527059 5.722353-1.003922-1.003922-2.208627-1.807059-2.911373-3.011765-4.919216-8.332549-23.090196-13.251765-9.938823-25.901177 3.71451-3.513725 17.066667 2.81098 28.611764 5.220393 9.336471-18.472157 21.082353-40.357647 31.523138-62.745098 7.830588-16.76549 16.76549-18.271373 29.81647-5.421177 8.332549 8.232157 17.568627 15.560784 27.90902 24.596079 18.773333-29.916863 36.341961-58.829804 55.316078-86.939608 4.116078-6.123922 13.151373-8.83451 19.877647-13.151373-0.401569 8.432941 2.108235 18.472157-1.606274 25.098039-17.869804 32.225882-37.747451 63.247059-56.119216 95.171765-9.035294 15.761569-18.371765 17.66902-30.318431 3.614118-7.629804-8.934902-15.159216-18.070588-25.098039-30.117647z m0 0"  /></svg>