<?xml version="1.0" standalone="no"?><!DOCTYPE svg PUBLIC "-//W3C//DTD SVG 1.1//EN" "http://www.w3.org/Graphics/SVG/1.1/DTD/svg11.dtd"><svg t="1553680732857" fill="#FFF" class="icon" style="" viewBox="0 0 1024 1024" version="1.1" xmlns="http://www.w3.org/2000/svg" p-id="2822" xmlns:xlink="http://www.w3.org/1999/xlink" width="22" height="22"><defs><style type="text/css"></style></defs><path d="M701.548 628.434H323.45c-20.861 0-37.83-16.969-37.83-37.83s16.969-37.83 37.83-37.83h377.998c20.862 0 37.83 16.969 37.83 37.83s-16.868 37.83-37.73 37.83m0 165.792H323.45c-20.861 0-37.83-16.968-37.83-37.83s16.969-37.83 37.83-37.83h377.998c20.862 0 37.83 16.97 37.83 37.83s-16.868 37.83-37.73 37.83m158.905-668.659h-17.966c-17.967 0.2-32.34 11.579-32.44 30.743v133.552c0 19.065-14.473 30.444-28.946 30.444l-537.403 3.892c-17.967 0-28.946-15.271-28.946-30.543V160.203c0-19.065-14.474-30.444-28.947-30.444h-17.867c-46.913-3.893-68.473 26.65-68.473 68.673v743.72c0 34.336 32.34 80.051 75.76 80.051h674.349c36.033 0 75.859-41.822 75.859-80.051V194.339c0-34.336-25.253-68.772-64.98-68.772" p-id="2823"></path><path d="M510.53 175.827c-30.842 0-55.796-24.954-55.796-55.797s24.954-55.796 55.797-55.796 55.796 24.954 55.796 55.796-24.954 55.797-55.796 55.797M701.676 87.59H683.71c-17.966 0-28.946-15.271-28.946-30.443-0.3-31.641-26.052-57.094-57.593-57.094H427.585c-31.642 0-57.394 25.453-57.693 57.094 0 19.065-14.473 30.443-28.947 30.443h-21.66c-17.966 0-28.946 15.272-28.946 30.444v91.53c0 19.065 14.473 30.444 28.947 30.444h382.29c17.967 0 28.947-15.272 28.947-30.444v-91.43c0.1-19.165-14.374-30.544-28.847-30.544" p-id="2824"></path></svg>