<?xml version="1.0" standalone="no"?><!DOCTYPE svg PUBLIC "-//W3C//DTD SVG 1.1//EN" "http://www.w3.org/Graphics/SVG/1.1/DTD/svg11.dtd"><svg t="1554273676185" class="icon" style="" viewBox="0 0 1024 1024" version="1.1" xmlns="http://www.w3.org/2000/svg" p-id="6128" xmlns:xlink="http://www.w3.org/1999/xlink" width="200" height="200"><defs><style type="text/css"></style></defs><path d="M459.058336 972.168621l-38.763784-6.797809c-87.611208-15.392541-253.307687-89.99653-253.307687-262.07024 0-141.709206 70.419699-222.661774 151.935084-316.395412 62.216893-71.542263 132.749155-152.578742 195.259735-280.692329l26.517904-54.381452 25.419899 54.885941c3.145637 6.769157 68.95842 150.978295 83.395195 346.477484 39.774809-54.296518 61.319455-104.714714 61.59984-105.389072l25.392269-60.083303 27.24445 59.2401c6.741528 14.661902 163.42372 360.157013 55.364848 528.719767-38.314554 59.801895-103.254459 90.137746-193.026886 90.137746h-13.988567l-8.623385-11.038382c-64.352528-81.878659-110.067618-177.213767-134.081496-278.699956-34.773922 110.558804-15.871447 255.273454-15.619715 257.099029l5.282296 38.987888z m42.609362-456.867442l12.177319 86.373011c15.617668 111.457265 59.157213 217.016205 126.204102 306.337354 62.244522-2.639101 105.081057-23.48176 130.641148-63.36811 63.539001-99.124403 8.482168-300.693832-35.784947-417.233849-20.195931 35.000072-50.671975 80.616924-91.009601 120.950458l-49.10018 49.10018V528.024943c0-144.575481-34.770852-270.329328-58.733565-339.764608-58.268985 103.648431-121.441644 176.314282-173.742719 236.396562-79.998849 91.962298-137.8053 158.477068-137.8053 278.643675 0 123.675517 108.759835 176.116785 168.251668 195.499188-5.111404-76.121549-5.728457-236.790534 67.218804-330.129176l41.683271-53.369405z" p-id="6129" fill="#2c2c2c"></path></svg>