<?xml version="1.0" standalone="no"?><!DOCTYPE svg PUBLIC "-//W3C//DTD SVG 1.1//EN" "http://www.w3.org/Graphics/SVG/1.1/DTD/svg11.dtd"><svg t="1553590097793" class="icon" style="" viewBox="0 0 1025 1024" version="1.1" xmlns="http://www.w3.org/2000/svg" p-id="2365" xmlns:xlink="http://www.w3.org/1999/xlink" width="200.1953125" height="200"><defs><style type="text/css"></style></defs><path d="M897.536 28.672h-296.96c-34.304 0-65.536 13.824-88.576 36.352-22.528-22.528-53.76-36.352-88.576-36.352h-296.96C56.832 28.672 0 84.992 0 155.136V768c0 20.992 16.896 37.888 37.888 37.888h360.448c52.736 0 80.384 43.008 81.408 44.544 0.512 1.024 1.024 1.536 1.536 2.048 0.512 1.024 1.024 1.536 1.536 2.048 2.048 2.56 4.096 4.608 6.656 6.144l1.536 1.024c6.144 4.096 13.312 6.656 20.992 6.656 3.072 0 6.656-0.512 10.24-1.536 1.536-0.512 2.56-1.536 4.096-1.536 2.048-0.512 3.584-1.536 5.632-2.56 1.536-1.024 3.072-2.048 4.096-3.072 1.536-1.536 3.072-2.56 4.608-4.096 1.024-1.024 2.048-2.048 3.072-3.584l1.536-1.536c1.024-2.048 28.672-45.056 81.408-45.056h360.448c20.992 0 37.888-16.896 37.888-37.888V155.136c-1.024-70.144-57.856-126.464-127.488-126.464z m-496.128 721.92H57.344V136.704c0-29.696 24.064-53.76 53.76-53.76h316.928c29.696 0 53.76 24.064 53.76 53.76v632.832c-21.504-11.264-48.64-18.944-80.384-18.944z m565.248 0h-344.064c-31.744 0-58.88 8.192-80.896 19.456V136.704c0-29.696 24.064-53.76 53.76-53.76h316.928c29.696 0 53.76 24.064 53.76 53.76l-5.12 613.376h5.632z" p-id="2366"></path><path d="M374.784 226.304H165.888c-20.992 0-37.888 12.8-37.888 29.184s16.896 29.184 37.888 29.184h209.408c20.992 0 37.888-12.8 37.888-29.184s-16.896-29.184-38.4-29.184zM374.784 401.408H165.888c-20.992 0-37.888 12.8-37.888 29.184s16.896 29.184 37.888 29.184h209.408c20.992 0 37.888-12.8 37.888-29.184 0-15.872-16.896-29.184-38.4-29.184zM374.784 577.024H165.888c-20.992 0-37.888 12.8-37.888 29.184s16.896 29.184 37.888 29.184h209.408c20.992 0 37.888-12.8 37.888-29.184s-16.896-29.184-38.4-29.184zM854.528 226.304H645.12c-20.992 0-37.888 12.8-37.888 29.184s16.896 29.184 37.888 29.184h209.408c20.992 0 37.888-12.8 37.888-29.184s-16.896-29.184-37.888-29.184zM854.528 401.408H645.12c-20.992 0-37.888 12.8-37.888 29.184s16.896 29.184 37.888 29.184h209.408c20.992 0 37.888-12.8 37.888-29.184 0-15.872-16.896-29.184-37.888-29.184zM854.528 577.024H645.12c-20.992 0-37.888 12.8-37.888 29.184s16.896 29.184 37.888 29.184h209.408c20.992 0 37.888-12.8 37.888-29.184s-16.896-29.184-37.888-29.184zM986.112 935.424H45.056c-20.992 0-37.888 13.312-37.888 30.208s16.896 30.208 37.888 30.208h941.056c20.992 0 37.888-13.312 37.888-30.208 0-16.896-16.896-30.208-37.888-30.208z" p-id="2367"></path></svg>