<?xml version="1.0" standalone="no"?><!DOCTYPE svg PUBLIC "-//W3C//DTD SVG 1.1//EN" "http://www.w3.org/Graphics/SVG/1.1/DTD/svg11.dtd"><svg t="1554198286400" fill="#ccc" class="icon" style="" viewBox="0 0 1024 1024" version="1.1" xmlns="http://www.w3.org/2000/svg" p-id="1857" xmlns:xlink="http://www.w3.org/1999/xlink" width="25" height="25"><defs><style type="text/css"></style></defs><path d="M864 448h-704c-70.4 0-128 57.6-128 128v320c0 70.4 57.6 128 128 128h704c70.4 0 128-57.6 128-128V576c0-70.4-57.6-128-128-128z m-320 313.6v102.4c0 19.2-12.8 32-32 32s-32-12.8-32-32v-102.4c-38.4-12.8-64-44.8-64-89.6C416 620.8 460.8 576 512 576s96 44.8 96 96c0 44.8-25.6 76.8-64 89.6zM281.6 345.6c51.2-249.6 416-249.6 467.2 0 19.2 70.4 128 51.2 121.6-19.2-57.6-390.4-633.6-390.4-704 0-12.8 70.4 96 89.6 115.2 19.2z" p-id="1858"></path></svg>