<?xml version="1.0" standalone="no"?><!DOCTYPE svg PUBLIC "-//W3C//DTD SVG 1.1//EN" "http://www.w3.org/Graphics/SVG/1.1/DTD/svg11.dtd"><svg fill="#a4a4a4" t="1553840615003" class="icon" style="" viewBox="0 0 1024 1024" version="1.1" xmlns="http://www.w3.org/2000/svg" p-id="2859" xmlns:xlink="http://www.w3.org/1999/xlink" width="16" height="16"><defs><style type="text/css"></style></defs><path d="M693.12 48.64c0 26.88 22.4 48.64 49.28 48.64 27.52 0 49.28-21.76 49.28-48.64S769.28 0 742.4 0c-27.52 0-49.28 21.76-49.28 48.64zM863.36 368c0 23.04 18.56 41.6 42.24 41.6 23.04 0 42.24-18.56 42.24-41.6s-18.56-41.6-42.24-41.6c-23.68 0-42.24 18.56-42.24 41.6zM270.72 161.92c0 53.12 43.52 96 97.28 96s97.28-42.88 97.28-96-43.52-96-97.28-96-97.28 42.88-97.28 96zM81.92 466.56c0 43.52 35.84 79.36 80 79.36s80-35.2 80-79.36c0-43.52-35.84-79.36-80-79.36s-80 35.2-80 79.36zM76.8 864.64c0 88.32 72.32 159.36 161.92 159.36s161.92-71.68 161.92-159.36c0-88.32-72.32-159.36-161.92-159.36S76.8 776.32 76.8 864.64z m680.32-19.84c0 44.16 36.48 80.64 81.28 80.64 44.8 0 81.28-35.84 81.28-80.64 0-44.16-36.48-80.64-81.28-80.64-44.8 0.64-81.28 36.48-81.28 80.64zM306.56 512.64c0 140.16 115.2 253.44 256.64 253.44 142.08 0 256.64-113.28 256.64-253.44S704.64 259.2 563.2 259.2c-142.08 0-256.64 113.28-256.64 253.44z m0 0"  p-id="2860"></path></svg>