<?xml version="1.0" standalone="no"?><!DOCTYPE svg PUBLIC "-//W3C//DTD SVG 1.1//EN" "http://www.w3.org/Graphics/SVG/1.1/DTD/svg11.dtd"><svg t="1554198280912" fill="#ccc" class="icon" style="" viewBox="0 0 1024 1024" version="1.1" xmlns="http://www.w3.org/2000/svg" p-id="1747" xmlns:xlink="http://www.w3.org/1999/xlink" width="25" height="25"><defs><style type="text/css"></style></defs><path d="M500.2 4.6c142.5 0 258 113.6 258 253.7S642.6 512 500.2 512s-258-113.6-258-253.7S357.7 4.6 500.2 4.6z m0 0" p-id="1748"></path><path d="M500.2 4.6c142.5 0 258 113.6 258 253.7S642.6 512 500.2 512s-258-113.6-258-253.7S357.7 4.6 500.2 4.6z m-96.8 592h215c184 0 333.2 146.7 333.2 327.7v21.1c0 71.3-149.2 74-333.2 74h-215c-184 0-333.2-0.1-333.2-74v-21.1c0-181 149.2-327.7 333.2-327.7z m0 0" p-id="1749"></path></svg>