<?xml version="1.0" standalone="no"?><!DOCTYPE svg PUBLIC "-//W3C//DTD SVG 1.1//EN" "http://www.w3.org/Graphics/SVG/1.1/DTD/svg11.dtd"><svg t="1553590106375" class="icon" style="" viewBox="0 0 1024 1024" version="1.1" xmlns="http://www.w3.org/2000/svg" p-id="2475" xmlns:xlink="http://www.w3.org/1999/xlink" width="200" height="200"><defs><style type="text/css"></style></defs><path d="M539.41 16.418c-9.166-5.495-18.706-7.885-29.748-7.885-11.025 0-20.565 2.39-30.328 8.21L82.04 214.186c-18.5 12.322-30.327 32.597-30.327 52.053v489.25c0 21.607 11.708 41.677 29.44 51.541l398.78 200.534c9.165 5.512 18.705 7.902 29.73 7.902 11.042 0 20.582-2.39 30.344-8.21l397.876-197.802c18.04-10.018 29.747-30.072 29.747-51.695V266.24c0-19.285-11.64-39.407-29.901-51.763L539.409 16.418z m-33.28 43.315h10.103l370.585 185.293-122.197 74.377-359.578-208.555 97.331-47.36 3.755-3.755zM120.592 252.058l234.581-116.054L726.921 343.33 509.78 474.112 120.593 252.058z m363.469 266.36V951.33l-381.15-190.566V301.636l381.15 216.781z m51.2-2.151l381.167-228.694v473.19L535.262 951.33V516.267z m226.696 7.68l-118.357 68.266c-11.503 6.588-15.155 21.71-8.192 33.878 6.57 11.52 21.692 15.155 33.826 8.226l118.375-68.284c11.503-6.57 15.155-21.692 8.192-33.877-6.571-11.503-21.692-15.155-33.844-8.21z" fill="#2c2c2c" p-id="2476"></path></svg>